<?xml version="1.0" encoding="utf-8"?>
<!-- Generator: Adobe Illustrator 16.0.0, SVG Export Plug-In . SVG Version: 6.00 Build 0)  -->
<!DOCTYPE svg PUBLIC "-//W3C//DTD SVG 1.1//EN" "http://www.w3.org/Graphics/SVG/1.1/DTD/svg11.dtd">
<svg version="1.1" id="Layer_1" xmlns="http://www.w3.org/2000/svg" xmlns:xlink="http://www.w3.org/1999/xlink" x="0px" y="0px"
	 width="100px" height="100px" viewBox="0 0 100 100" enable-background="new 0 0 100 100" xml:space="preserve">
<g>
	<g>
		<circle fill="#EFDBB3" cx="12.3" cy="15.391" r="9.802"/>
		<path fill="#EFDBB3" d="M15.419,6.105c0,0,5.799-2.021,6.684-2.021c0.885,0,0.885,0,0.885,0S16.746,1.562,12.3,2.066
			c0,0-5.5,1.08-7.651,7.202C2.498,15.391,15.419,6.105,15.419,6.105z"/>
	</g>
	<g>
		<circle fill="#EFDBB3" cx="14.442" cy="42.402" r="9.802"/>
		<path fill="#EFDBB3" d="M17.562,33.114c0,0,5.798-2.021,6.683-2.021c0.885,0,0.885,0,0.885,0s-6.241-2.522-10.686-2.018
			c0,0-5.501,1.079-7.652,7.201C4.64,42.402,17.562,33.114,17.562,33.114z"/>
	</g>
</g>
<g>
	<g>
		<circle fill="#EFDBB3" cx="47.45" cy="15.391" r="9.802"/>
		<path fill="#EFDBB3" d="M50.57,6.105c0,0,5.796-2.021,6.682-2.021c0.885,0,0.885,0,0.885,0s-6.242-2.523-10.688-2.018
			c0,0-5.499,1.08-7.65,7.202C37.648,15.391,50.57,6.105,50.57,6.105z"/>
	</g>
	<g>
		<circle fill="#EFDBB3" cx="49.592" cy="42.402" r="9.802"/>
		<path fill="#EFDBB3" d="M52.711,33.114c0,0,5.795-2.021,6.684-2.021c0.883,0,0.883,0,0.883,0s-6.241-2.522-10.687-2.018
			c0,0-5.501,1.079-7.65,7.201C39.79,42.402,52.711,33.114,52.711,33.114z"/>
	</g>
</g>
<g>
	<g>
		<circle fill="#EFDBB3" cx="81.783" cy="17.3" r="9.802"/>
		<path fill="#EFDBB3" d="M84.902,8.014c0,0,5.797-2.021,6.683-2.021c0.884,0,0.884,0,0.884,0s-6.24-2.523-10.688-2.018
			c0,0-5.498,1.08-7.65,7.202C71.98,17.3,84.902,8.014,84.902,8.014z"/>
	</g>
	<g>
		<path fill="#EFDBB3" d="M93.729,44.311c0,5.412-4.39,9.8-9.806,9.8c-5.413,0-9.8-4.388-9.8-9.8c0-5.416,4.387-9.805,9.8-9.805
			C89.339,34.506,93.729,38.895,93.729,44.311z"/>
		<path fill="#EFDBB3" d="M87.044,35.023c0,0,5.795-2.02,6.685-2.02c0.883,0,0.883,0,0.883,0s-6.242-2.522-10.688-2.018
			c0,0-5.501,1.079-7.649,7.201C74.123,44.311,87.044,35.023,87.044,35.023z"/>
	</g>
</g>
<g>
	<g>
		<circle fill="#EFDBB3" cx="13.326" cy="73.707" r="9.802"/>
		<path fill="#EFDBB3" d="M16.444,64.422c0,0,5.799-2.021,6.684-2.021c0.885,0,0.885,0,0.885,0s-6.241-2.521-10.688-2.018
			c0,0-5.5,1.08-7.651,7.202C3.523,73.707,16.444,64.422,16.444,64.422z"/>
	</g>
	<g>
		<path fill="#EFDBB3" d="M25.27,100.719c0,5.412-4.389,9.801-9.801,9.801c-5.415,0-9.804-4.389-9.804-9.801
			c0-5.416,4.389-9.805,9.804-9.805C20.881,90.914,25.27,95.303,25.27,100.719z"/>
		<path fill="#EFDBB3" d="M18.587,91.432c0,0,5.798-2.021,6.683-2.021c0.885,0,0.885,0,0.885,0s-6.241-2.521-10.686-2.018
			c0,0-5.501,1.08-7.653,7.2C5.665,100.719,18.587,91.432,18.587,91.432z"/>
	</g>
</g>
<g>
	<g>
		<circle fill="#EFDBB3" cx="49.209" cy="73.107" r="9.802"/>
		<path fill="#EFDBB3" d="M52.328,63.822c0,0,5.799-2.021,6.684-2.021s0.885,0,0.885,0s-6.24-2.521-10.688-2.018
			c0,0-5.5,1.08-7.651,7.201C39.407,73.107,52.328,63.822,52.328,63.822z"/>
	</g>
	<g>
		<path fill="#EFDBB3" d="M61.152,100.119c0,5.412-4.389,9.801-9.801,9.801c-5.415,0-9.804-4.389-9.804-9.801
			c0-5.416,4.389-9.805,9.804-9.805C56.766,90.314,61.152,94.703,61.152,100.119z"/>
		<path fill="#EFDBB3" d="M54.471,90.831c0,0,5.799-2.021,6.684-2.021s0.885,0,0.885,0s-6.241-2.521-10.686-2.019
			c0,0-5.501,1.08-7.653,7.201C41.549,100.119,54.471,90.831,54.471,90.831z"/>
	</g>
</g>
<g>
	<g>
		<circle fill="#EFDBB3" cx="84.145" cy="73.707" r="9.802"/>
		<path fill="#EFDBB3" d="M87.262,64.422c0,0,5.799-2.021,6.684-2.021c0.886,0,0.886,0,0.886,0s-6.24-2.521-10.688-2.018
			c0,0-5.5,1.08-7.649,7.202C74.343,73.707,87.262,64.422,87.262,64.422z"/>
	</g>
	<g>
		<path fill="#EFDBB3" d="M96.088,100.719c0,5.412-4.389,9.801-9.801,9.801c-5.415,0-9.805-4.389-9.805-9.801
			c0-5.416,4.39-9.805,9.805-9.805C91.699,90.914,96.088,95.303,96.088,100.719z"/>
		<path fill="#EFDBB3" d="M89.404,91.432c0,0,5.799-2.021,6.684-2.021s0.885,0,0.885,0s-6.242-2.521-10.686-2.018
			c0,0-5.502,1.08-7.653,7.2C76.482,100.719,89.404,91.432,89.404,91.432z"/>
	</g>
</g>
</svg>
